<svg xmlns="http://www.w3.org/2000/svg" xmlns:xlink="http://www.w3.org/1999/xlink" width="378" zoomAndPan="magnify" viewBox="0 0 283.5 42.75" height="57" preserveAspectRatio="xMidYMid meet" version="1.0"><defs><g/><clipPath id="96b70b7178"><path d="M 4 0 L 279 0 L 279 42.5 L 4 42.5 Z M 4 0 " clip-rule="nonzero"/></clipPath><clipPath id="bb602ba992"><rect x="0" width="275" y="0" height="43"/></clipPath></defs><g clip-path="url(#96b70b7178)"><g transform="matrix(1, 0, 0, 1, 4, 0.000000000000006407)"><g clip-path="url(#bb602ba992)"><g fill="#606367" fill-opacity="1"><g transform="translate(1.364583, 33.088722)"><g><path d="M 9.015625 0 C 7.878906 0 6.957031 -0.347656 6.25 -1.046875 C 5.550781 -1.753906 5.203125 -2.703125 5.203125 -3.890625 L 5.203125 -13.59375 L 0.90625 -13.59375 L 0.90625 -17.203125 L 5.203125 -17.203125 L 5.203125 -22.546875 L 9.578125 -22.546875 L 9.578125 -17.203125 L 14.296875 -17.203125 L 14.296875 -13.59375 L 9.578125 -13.59375 L 9.578125 -4.640625 C 9.578125 -3.953125 9.898438 -3.609375 10.546875 -3.609375 L 13.875 -3.609375 L 13.875 0 Z M 9.015625 0 "/></g></g></g><g fill="#606367" fill-opacity="1"><g transform="translate(17.182444, 33.088722)"><g><path d="M 8.984375 0.28125 C 7.640625 0.28125 6.460938 -0.0234375 5.453125 -0.640625 C 4.453125 -1.253906 3.675781 -2.101562 3.125 -3.1875 C 2.570312 -4.28125 2.296875 -5.53125 2.296875 -6.9375 L 2.296875 -17.203125 L 6.65625 -17.203125 L 6.65625 -7.28125 C 6.65625 -5.988281 6.972656 -5.019531 7.609375 -4.375 C 8.242188 -3.726562 9.15625 -3.40625 10.34375 -3.40625 C 11.675781 -3.40625 12.710938 -3.847656 13.453125 -4.734375 C 14.191406 -5.628906 14.5625 -6.875 14.5625 -8.46875 L 14.5625 -17.203125 L 18.9375 -17.203125 L 18.9375 0 L 14.640625 0 L 14.640625 -2.25 L 14.015625 -2.25 C 13.734375 -1.675781 13.210938 -1.109375 12.453125 -0.546875 C 11.691406 0.00390625 10.535156 0.28125 8.984375 0.28125 Z M 8.984375 0.28125 "/></g></g></g><g fill="#606367" fill-opacity="1"><g transform="translate(38.550425, 33.088722)"><g><path d="M 9.578125 0.484375 C 7.328125 0.484375 5.484375 0 4.046875 -0.96875 C 2.617188 -1.9375 1.753906 -3.328125 1.453125 -5.140625 L 5.484375 -6.171875 C 5.640625 -5.359375 5.910156 -4.722656 6.296875 -4.265625 C 6.679688 -3.804688 7.15625 -3.476562 7.71875 -3.28125 C 8.28125 -3.082031 8.898438 -2.984375 9.578125 -2.984375 C 10.585938 -2.984375 11.335938 -3.160156 11.828125 -3.515625 C 12.316406 -3.878906 12.5625 -4.328125 12.5625 -4.859375 C 12.5625 -5.390625 12.328125 -5.796875 11.859375 -6.078125 C 11.398438 -6.367188 10.660156 -6.609375 9.640625 -6.796875 L 8.671875 -6.96875 C 7.472656 -7.195312 6.375 -7.515625 5.375 -7.921875 C 4.382812 -8.328125 3.585938 -8.890625 2.984375 -9.609375 C 2.378906 -10.328125 2.078125 -11.253906 2.078125 -12.390625 C 2.078125 -14.097656 2.703125 -15.40625 3.953125 -16.3125 C 5.203125 -17.226562 6.84375 -17.6875 8.875 -17.6875 C 10.800781 -17.6875 12.398438 -17.257812 13.671875 -16.40625 C 14.941406 -15.550781 15.773438 -14.429688 16.171875 -13.046875 L 12.109375 -11.796875 C 11.921875 -12.671875 11.539062 -13.289062 10.96875 -13.65625 C 10.40625 -14.03125 9.707031 -14.21875 8.875 -14.21875 C 8.039062 -14.21875 7.40625 -14.070312 6.96875 -13.78125 C 6.53125 -13.5 6.3125 -13.101562 6.3125 -12.59375 C 6.3125 -12.039062 6.539062 -11.628906 7 -11.359375 C 7.46875 -11.097656 8.09375 -10.894531 8.875 -10.75 L 9.84375 -10.578125 C 11.144531 -10.347656 12.320312 -10.039062 13.375 -9.65625 C 14.425781 -9.28125 15.253906 -8.738281 15.859375 -8.03125 C 16.472656 -7.320312 16.78125 -6.367188 16.78125 -5.171875 C 16.78125 -3.367188 16.128906 -1.972656 14.828125 -0.984375 C 13.523438 -0.00390625 11.773438 0.484375 9.578125 0.484375 Z M 9.578125 0.484375 "/></g></g></g><g fill="#303231" fill-opacity="1"><g transform="translate(56.73524, 33.088722)"><g><path d="M 2.421875 6.9375 L 2.421875 -17.203125 L 6.734375 -17.203125 L 6.734375 -15.125 L 7.359375 -15.125 C 7.742188 -15.789062 8.351562 -16.382812 9.1875 -16.90625 C 10.019531 -17.425781 11.210938 -17.6875 12.765625 -17.6875 C 14.148438 -17.6875 15.429688 -17.34375 16.609375 -16.65625 C 17.796875 -15.976562 18.742188 -14.976562 19.453125 -13.65625 C 20.171875 -12.34375 20.53125 -10.75 20.53125 -8.875 L 20.53125 -8.328125 C 20.53125 -6.453125 20.171875 -4.851562 19.453125 -3.53125 C 18.742188 -2.21875 17.796875 -1.21875 16.609375 -0.53125 C 15.429688 0.144531 14.148438 0.484375 12.765625 0.484375 C 11.722656 0.484375 10.847656 0.359375 10.140625 0.109375 C 9.441406 -0.128906 8.878906 -0.4375 8.453125 -0.8125 C 8.023438 -1.195312 7.679688 -1.585938 7.421875 -1.984375 L 6.796875 -1.984375 L 6.796875 6.9375 Z M 11.453125 -3.328125 C 12.816406 -3.328125 13.941406 -3.757812 14.828125 -4.625 C 15.722656 -5.5 16.171875 -6.765625 16.171875 -8.421875 L 16.171875 -8.78125 C 16.171875 -10.445312 15.71875 -11.710938 14.8125 -12.578125 C 13.90625 -13.441406 12.785156 -13.875 11.453125 -13.875 C 10.109375 -13.875 8.984375 -13.441406 8.078125 -12.578125 C 7.179688 -11.710938 6.734375 -10.445312 6.734375 -8.78125 L 6.734375 -8.421875 C 6.734375 -6.765625 7.179688 -5.5 8.078125 -4.625 C 8.984375 -3.757812 10.109375 -3.328125 11.453125 -3.328125 Z M 11.453125 -3.328125 "/></g></g></g><g fill="#303231" fill-opacity="1"><g transform="translate(78.866364, 33.088722)"><g><path d="M 7.765625 0.484375 C 6.546875 0.484375 5.445312 0.269531 4.46875 -0.15625 C 3.5 -0.582031 2.726562 -1.207031 2.15625 -2.03125 C 1.59375 -2.851562 1.3125 -3.851562 1.3125 -5.03125 C 1.3125 -6.207031 1.59375 -7.191406 2.15625 -7.984375 C 2.726562 -8.785156 3.515625 -9.390625 4.515625 -9.796875 C 5.523438 -10.203125 6.679688 -10.40625 7.984375 -10.40625 L 12.703125 -10.40625 L 12.703125 -11.375 C 12.703125 -12.1875 12.445312 -12.851562 11.9375 -13.375 C 11.425781 -13.894531 10.613281 -14.15625 9.5 -14.15625 C 8.414062 -14.15625 7.609375 -13.90625 7.078125 -13.40625 C 6.546875 -12.90625 6.195312 -12.265625 6.03125 -11.484375 L 2.015625 -12.828125 C 2.285156 -13.710938 2.726562 -14.519531 3.34375 -15.25 C 3.957031 -15.976562 4.78125 -16.566406 5.8125 -17.015625 C 6.84375 -17.460938 8.097656 -17.6875 9.578125 -17.6875 C 11.835938 -17.6875 13.625 -17.117188 14.9375 -15.984375 C 16.257812 -14.859375 16.921875 -13.21875 16.921875 -11.0625 L 16.921875 -4.640625 C 16.921875 -3.953125 17.25 -3.609375 17.90625 -3.609375 L 19.28125 -3.609375 L 19.28125 0 L 16.375 0 C 15.519531 0 14.8125 -0.207031 14.25 -0.625 C 13.695312 -1.039062 13.421875 -1.597656 13.421875 -2.296875 L 13.421875 -2.328125 L 12.765625 -2.328125 C 12.671875 -2.046875 12.460938 -1.679688 12.140625 -1.234375 C 11.816406 -0.785156 11.304688 -0.382812 10.609375 -0.03125 C 9.921875 0.3125 8.972656 0.484375 7.765625 0.484375 Z M 8.53125 -3.046875 C 9.757812 -3.046875 10.757812 -3.382812 11.53125 -4.0625 C 12.3125 -4.75 12.703125 -5.660156 12.703125 -6.796875 L 12.703125 -7.140625 L 8.296875 -7.140625 C 7.484375 -7.140625 6.84375 -6.96875 6.375 -6.625 C 5.914062 -6.28125 5.6875 -5.796875 5.6875 -5.171875 C 5.6875 -4.546875 5.925781 -4.035156 6.40625 -3.640625 C 6.894531 -3.242188 7.601562 -3.046875 8.53125 -3.046875 Z M 8.53125 -3.046875 "/></g></g></g><g fill="#303231" fill-opacity="1"><g transform="translate(98.916193, 33.088722)"><g><path d="M 2.421875 6.9375 L 2.421875 -17.203125 L 6.734375 -17.203125 L 6.734375 -15.125 L 7.359375 -15.125 C 7.742188 -15.789062 8.351562 -16.382812 9.1875 -16.90625 C 10.019531 -17.425781 11.210938 -17.6875 12.765625 -17.6875 C 14.148438 -17.6875 15.429688 -17.34375 16.609375 -16.65625 C 17.796875 -15.976562 18.742188 -14.976562 19.453125 -13.65625 C 20.171875 -12.34375 20.53125 -10.75 20.53125 -8.875 L 20.53125 -8.328125 C 20.53125 -6.453125 20.171875 -4.851562 19.453125 -3.53125 C 18.742188 -2.21875 17.796875 -1.21875 16.609375 -0.53125 C 15.429688 0.144531 14.148438 0.484375 12.765625 0.484375 C 11.722656 0.484375 10.847656 0.359375 10.140625 0.109375 C 9.441406 -0.128906 8.878906 -0.4375 8.453125 -0.8125 C 8.023438 -1.195312 7.679688 -1.585938 7.421875 -1.984375 L 6.796875 -1.984375 L 6.796875 6.9375 Z M 11.453125 -3.328125 C 12.816406 -3.328125 13.941406 -3.757812 14.828125 -4.625 C 15.722656 -5.5 16.171875 -6.765625 16.171875 -8.421875 L 16.171875 -8.78125 C 16.171875 -10.445312 15.71875 -11.710938 14.8125 -12.578125 C 13.90625 -13.441406 12.785156 -13.875 11.453125 -13.875 C 10.109375 -13.875 8.984375 -13.441406 8.078125 -12.578125 C 7.179688 -11.710938 6.734375 -10.445312 6.734375 -8.78125 L 6.734375 -8.421875 C 6.734375 -6.765625 7.179688 -5.5 8.078125 -4.625 C 8.984375 -3.757812 10.109375 -3.328125 11.453125 -3.328125 Z M 11.453125 -3.328125 "/></g></g></g><g fill="#303231" fill-opacity="1"><g transform="translate(121.047316, 33.088722)"><g><path d="M 10.265625 0.484375 C 8.554688 0.484375 7.046875 0.117188 5.734375 -0.609375 C 4.429688 -1.335938 3.414062 -2.363281 2.6875 -3.6875 C 1.957031 -5.019531 1.59375 -6.585938 1.59375 -8.390625 L 1.59375 -8.8125 C 1.59375 -10.613281 1.953125 -12.175781 2.671875 -13.5 C 3.390625 -14.832031 4.394531 -15.863281 5.6875 -16.59375 C 6.976562 -17.320312 8.484375 -17.6875 10.203125 -17.6875 C 11.890625 -17.6875 13.359375 -17.3125 14.609375 -16.5625 C 15.859375 -15.8125 16.828125 -14.769531 17.515625 -13.4375 C 18.210938 -12.113281 18.5625 -10.570312 18.5625 -8.8125 L 18.5625 -7.3125 L 6.03125 -7.3125 C 6.082031 -6.132812 6.523438 -5.175781 7.359375 -4.4375 C 8.191406 -3.695312 9.207031 -3.328125 10.40625 -3.328125 C 11.632812 -3.328125 12.535156 -3.59375 13.109375 -4.125 C 13.691406 -4.65625 14.132812 -5.242188 14.4375 -5.890625 L 18 -4.03125 C 17.675781 -3.425781 17.207031 -2.769531 16.59375 -2.0625 C 15.976562 -1.351562 15.160156 -0.75 14.140625 -0.25 C 13.128906 0.238281 11.835938 0.484375 10.265625 0.484375 Z M 6.078125 -10.578125 L 14.125 -10.578125 C 14.03125 -11.578125 13.628906 -12.375 12.921875 -12.96875 C 12.210938 -13.570312 11.289062 -13.875 10.15625 -13.875 C 8.976562 -13.875 8.039062 -13.570312 7.34375 -12.96875 C 6.65625 -12.375 6.234375 -11.578125 6.078125 -10.578125 Z M 6.078125 -10.578125 "/></g></g></g><g fill="#303231" fill-opacity="1"><g transform="translate(141.062451, 33.088722)"><g><path d="M 2.421875 0 L 2.421875 -24.28125 L 6.796875 -24.28125 L 6.796875 0 Z M 2.421875 0 "/></g></g></g><g fill="#303231" fill-opacity="1"><g transform="translate(150.28954, 33.088722)"><g><path d="M 10.265625 0.484375 C 8.554688 0.484375 7.046875 0.117188 5.734375 -0.609375 C 4.429688 -1.335938 3.414062 -2.363281 2.6875 -3.6875 C 1.957031 -5.019531 1.59375 -6.585938 1.59375 -8.390625 L 1.59375 -8.8125 C 1.59375 -10.613281 1.953125 -12.175781 2.671875 -13.5 C 3.390625 -14.832031 4.394531 -15.863281 5.6875 -16.59375 C 6.976562 -17.320312 8.484375 -17.6875 10.203125 -17.6875 C 11.890625 -17.6875 13.359375 -17.3125 14.609375 -16.5625 C 15.859375 -15.8125 16.828125 -14.769531 17.515625 -13.4375 C 18.210938 -12.113281 18.5625 -10.570312 18.5625 -8.8125 L 18.5625 -7.3125 L 6.03125 -7.3125 C 6.082031 -6.132812 6.523438 -5.175781 7.359375 -4.4375 C 8.191406 -3.695312 9.207031 -3.328125 10.40625 -3.328125 C 11.632812 -3.328125 12.535156 -3.59375 13.109375 -4.125 C 13.691406 -4.65625 14.132812 -5.242188 14.4375 -5.890625 L 18 -4.03125 C 17.675781 -3.425781 17.207031 -2.769531 16.59375 -2.0625 C 15.976562 -1.351562 15.160156 -0.75 14.140625 -0.25 C 13.128906 0.238281 11.835938 0.484375 10.265625 0.484375 Z M 6.078125 -10.578125 L 14.125 -10.578125 C 14.03125 -11.578125 13.628906 -12.375 12.921875 -12.96875 C 12.210938 -13.570312 11.289062 -13.875 10.15625 -13.875 C 8.976562 -13.875 8.039062 -13.570312 7.34375 -12.96875 C 6.65625 -12.375 6.234375 -11.578125 6.078125 -10.578125 Z M 6.078125 -10.578125 "/></g></g></g><g fill="#303231" fill-opacity="1"><g transform="translate(170.304674, 33.088722)"><g><path d="M 9.578125 0.484375 C 7.328125 0.484375 5.484375 0 4.046875 -0.96875 C 2.617188 -1.9375 1.753906 -3.328125 1.453125 -5.140625 L 5.484375 -6.171875 C 5.640625 -5.359375 5.910156 -4.722656 6.296875 -4.265625 C 6.679688 -3.804688 7.15625 -3.476562 7.71875 -3.28125 C 8.28125 -3.082031 8.898438 -2.984375 9.578125 -2.984375 C 10.585938 -2.984375 11.335938 -3.160156 11.828125 -3.515625 C 12.316406 -3.878906 12.5625 -4.328125 12.5625 -4.859375 C 12.5625 -5.390625 12.328125 -5.796875 11.859375 -6.078125 C 11.398438 -6.367188 10.660156 -6.609375 9.640625 -6.796875 L 8.671875 -6.96875 C 7.472656 -7.195312 6.375 -7.515625 5.375 -7.921875 C 4.382812 -8.328125 3.585938 -8.890625 2.984375 -9.609375 C 2.378906 -10.328125 2.078125 -11.253906 2.078125 -12.390625 C 2.078125 -14.097656 2.703125 -15.40625 3.953125 -16.3125 C 5.203125 -17.226562 6.84375 -17.6875 8.875 -17.6875 C 10.800781 -17.6875 12.398438 -17.257812 13.671875 -16.40625 C 14.941406 -15.550781 15.773438 -14.429688 16.171875 -13.046875 L 12.109375 -11.796875 C 11.921875 -12.671875 11.539062 -13.289062 10.96875 -13.65625 C 10.40625 -14.03125 9.707031 -14.21875 8.875 -14.21875 C 8.039062 -14.21875 7.40625 -14.070312 6.96875 -13.78125 C 6.53125 -13.5 6.3125 -13.101562 6.3125 -12.59375 C 6.3125 -12.039062 6.539062 -11.628906 7 -11.359375 C 7.46875 -11.097656 8.09375 -10.894531 8.875 -10.75 L 9.84375 -10.578125 C 11.144531 -10.347656 12.320312 -10.039062 13.375 -9.65625 C 14.425781 -9.28125 15.253906 -8.738281 15.859375 -8.03125 C 16.472656 -7.320312 16.78125 -6.367188 16.78125 -5.171875 C 16.78125 -3.367188 16.128906 -1.972656 14.828125 -0.984375 C 13.523438 -0.00390625 11.773438 0.484375 9.578125 0.484375 Z M 9.578125 0.484375 "/></g></g></g><g fill="#175b99" fill-opacity="1"><g transform="translate(188.485244, 33.088722)"><g><path d="M 1.453125 0 L 1.453125 -2.90625 C 1.453125 -4.601562 1.726562 -6.007812 2.28125 -7.125 C 2.84375 -8.25 3.648438 -9.175781 4.703125 -9.90625 C 5.753906 -10.632812 7.039062 -11.226562 8.5625 -11.6875 L 10.890625 -12.421875 C 11.742188 -12.691406 12.457031 -13.03125 13.03125 -13.4375 C 13.613281 -13.84375 14.0625 -14.332031 14.375 -14.90625 C 14.6875 -15.488281 14.84375 -16.148438 14.84375 -16.890625 L 14.84375 -17.03125 C 14.84375 -18.1875 14.445312 -19.101562 13.65625 -19.78125 C 12.875 -20.46875 11.800781 -20.8125 10.4375 -20.8125 C 9.09375 -20.8125 8.007812 -20.445312 7.1875 -19.71875 C 6.375 -18.988281 5.96875 -17.941406 5.96875 -16.578125 L 5.96875 -15.953125 L 1.53125 -15.953125 L 1.53125 -16.515625 C 1.53125 -18.265625 1.921875 -19.753906 2.703125 -20.984375 C 3.492188 -22.210938 4.5625 -23.148438 5.90625 -23.796875 C 7.257812 -24.441406 8.769531 -24.765625 10.4375 -24.765625 C 12.101562 -24.765625 13.609375 -24.445312 14.953125 -23.8125 C 16.296875 -23.175781 17.351562 -22.285156 18.125 -21.140625 C 18.894531 -19.992188 19.28125 -18.644531 19.28125 -17.09375 L 19.28125 -16.75 C 19.28125 -15.207031 18.960938 -13.894531 18.328125 -12.8125 C 17.691406 -11.738281 16.832031 -10.859375 15.75 -10.171875 C 14.664062 -9.492188 13.425781 -8.9375 12.03125 -8.5 L 9.8125 -7.8125 C 8.820312 -7.507812 8.046875 -7.175781 7.484375 -6.8125 C 6.929688 -6.457031 6.546875 -6.066406 6.328125 -5.640625 C 6.109375 -5.210938 6 -4.695312 6 -4.09375 L 6 -3.953125 L 19.078125 -3.953125 L 19.078125 0 Z M 1.453125 0 "/></g></g></g><g fill="#175b99" fill-opacity="1"><g transform="translate(209.090083, 33.088722)"><g><path d="M 11.234375 0.484375 C 8.367188 0.484375 6.066406 -0.304688 4.328125 -1.890625 C 2.597656 -3.472656 1.734375 -5.875 1.734375 -9.09375 L 1.734375 -15.1875 C 1.734375 -18.3125 2.597656 -20.6875 4.328125 -22.3125 C 6.066406 -23.945312 8.367188 -24.765625 11.234375 -24.765625 C 14.128906 -24.765625 16.4375 -23.945312 18.15625 -22.3125 C 19.882812 -20.6875 20.75 -18.3125 20.75 -15.1875 L 20.75 -9.09375 C 20.75 -5.875 19.882812 -3.472656 18.15625 -1.890625 C 16.4375 -0.304688 14.128906 0.484375 11.234375 0.484375 Z M 11.234375 -3.46875 C 12.972656 -3.46875 14.25 -3.941406 15.0625 -4.890625 C 15.882812 -5.835938 16.296875 -7.191406 16.296875 -8.953125 L 16.296875 -15.40625 C 16.296875 -17.1875 15.835938 -18.53125 14.921875 -19.4375 C 14.015625 -20.351562 12.785156 -20.8125 11.234375 -20.8125 C 9.640625 -20.8125 8.394531 -20.335938 7.5 -19.390625 C 6.613281 -18.441406 6.171875 -17.113281 6.171875 -15.40625 L 6.171875 -8.953125 C 6.171875 -7.117188 6.59375 -5.742188 7.4375 -4.828125 C 8.28125 -3.921875 9.546875 -3.46875 11.234375 -3.46875 Z M 11.234375 -3.46875 "/></g></g></g><g fill="#175b99" fill-opacity="1"><g transform="translate(231.568095, 33.088722)"><g><path d="M 1.453125 0 L 1.453125 -2.90625 C 1.453125 -4.601562 1.726562 -6.007812 2.28125 -7.125 C 2.84375 -8.25 3.648438 -9.175781 4.703125 -9.90625 C 5.753906 -10.632812 7.039062 -11.226562 8.5625 -11.6875 L 10.890625 -12.421875 C 11.742188 -12.691406 12.457031 -13.03125 13.03125 -13.4375 C 13.613281 -13.84375 14.0625 -14.332031 14.375 -14.90625 C 14.6875 -15.488281 14.84375 -16.148438 14.84375 -16.890625 L 14.84375 -17.03125 C 14.84375 -18.1875 14.445312 -19.101562 13.65625 -19.78125 C 12.875 -20.46875 11.800781 -20.8125 10.4375 -20.8125 C 9.09375 -20.8125 8.007812 -20.445312 7.1875 -19.71875 C 6.375 -18.988281 5.96875 -17.941406 5.96875 -16.578125 L 5.96875 -15.953125 L 1.53125 -15.953125 L 1.53125 -16.515625 C 1.53125 -18.265625 1.921875 -19.753906 2.703125 -20.984375 C 3.492188 -22.210938 4.5625 -23.148438 5.90625 -23.796875 C 7.257812 -24.441406 8.769531 -24.765625 10.4375 -24.765625 C 12.101562 -24.765625 13.609375 -24.445312 14.953125 -23.8125 C 16.296875 -23.175781 17.351562 -22.285156 18.125 -21.140625 C 18.894531 -19.992188 19.28125 -18.644531 19.28125 -17.09375 L 19.28125 -16.75 C 19.28125 -15.207031 18.960938 -13.894531 18.328125 -12.8125 C 17.691406 -11.738281 16.832031 -10.859375 15.75 -10.171875 C 14.664062 -9.492188 13.425781 -8.9375 12.03125 -8.5 L 9.8125 -7.8125 C 8.820312 -7.507812 8.046875 -7.175781 7.484375 -6.8125 C 6.929688 -6.457031 6.546875 -6.066406 6.328125 -5.640625 C 6.109375 -5.210938 6 -4.695312 6 -4.09375 L 6 -3.953125 L 19.078125 -3.953125 L 19.078125 0 Z M 1.453125 0 "/></g></g></g><g fill="#175b99" fill-opacity="1"><g transform="translate(252.172933, 33.088722)"><g><path d="M 10.828125 0.484375 C 8.972656 0.484375 7.363281 0.140625 6 -0.546875 C 4.632812 -1.242188 3.582031 -2.203125 2.84375 -3.421875 C 2.101562 -4.648438 1.734375 -6.066406 1.734375 -7.671875 L 1.734375 -15.953125 C 1.734375 -17.921875 2.128906 -19.554688 2.921875 -20.859375 C 3.722656 -22.171875 4.820312 -23.148438 6.21875 -23.796875 C 7.625 -24.441406 9.226562 -24.765625 11.03125 -24.765625 C 12.832031 -24.765625 14.394531 -24.460938 15.71875 -23.859375 C 17.050781 -23.265625 18.082031 -22.398438 18.8125 -21.265625 C 19.539062 -20.128906 19.90625 -18.773438 19.90625 -17.203125 L 15.40625 -17.203125 C 15.40625 -18.171875 15.066406 -19.015625 14.390625 -19.734375 C 13.722656 -20.453125 12.601562 -20.8125 11.03125 -20.8125 C 9.476562 -20.8125 8.28125 -20.40625 7.4375 -19.59375 C 6.59375 -18.789062 6.171875 -17.671875 6.171875 -16.234375 L 6.171875 -13.734375 L 6.796875 -13.734375 C 7.191406 -14.203125 7.789062 -14.640625 8.59375 -15.046875 C 9.40625 -15.460938 10.585938 -15.671875 12.140625 -15.671875 C 13.546875 -15.671875 14.84375 -15.367188 16.03125 -14.765625 C 17.226562 -14.171875 18.195312 -13.300781 18.9375 -12.15625 C 19.675781 -11.007812 20.046875 -9.628906 20.046875 -8.015625 L 20.046875 -7.59375 C 20.046875 -6 19.664062 -4.59375 18.90625 -3.375 C 18.144531 -2.164062 17.066406 -1.21875 15.671875 -0.53125 C 14.285156 0.144531 12.671875 0.484375 10.828125 0.484375 Z M 10.890625 -3.46875 C 12.347656 -3.46875 13.5 -3.847656 14.34375 -4.609375 C 15.1875 -5.378906 15.609375 -6.398438 15.609375 -7.671875 L 15.609375 -7.9375 C 15.609375 -8.800781 15.414062 -9.539062 15.03125 -10.15625 C 14.65625 -10.78125 14.113281 -11.265625 13.40625 -11.609375 C 12.695312 -11.960938 11.859375 -12.140625 10.890625 -12.140625 C 9.941406 -12.140625 9.109375 -11.960938 8.390625 -11.609375 C 7.671875 -11.265625 7.117188 -10.78125 6.734375 -10.15625 C 6.359375 -9.539062 6.171875 -8.800781 6.171875 -7.9375 L 6.171875 -7.671875 C 6.171875 -6.398438 6.59375 -5.378906 7.4375 -4.609375 C 8.28125 -3.847656 9.429688 -3.46875 10.890625 -3.46875 Z M 10.890625 -3.46875 "/></g></g></g></g></g></g></svg>